<?xml version="1.0" encoding="UTF-8"?>
<svg viewBox="0 0 84 15" xmlns="http://www.w3.org/2000/svg">
 <path d="m2.8575 14.89 0.78639-5.3436-3.6082-3.8548 5.0792-0.86533 2.3738-4.7973 2.3527 4.8088 5.0753 0.88996-3.6251 3.8373 0.76291 5.3473-4.5932-2.4372-4.6038 2.4149z" fill="#ff0" fill-opacity=".75" fill-rule="evenodd" stroke="#000" stroke-width=".03262"/>
 <path d="m20.132 14.89 0.78638-5.3406-3.6082-3.8527 5.0792-0.86485 2.3738-4.7946 2.3527 4.8061 5.0753 0.88946-3.6251 3.8352 0.76291 5.3444-4.5932-2.4358-4.6038 2.4135z" fill="#ff0" fill-opacity=".75" fill-rule="evenodd" stroke="#000" stroke-width=".03261"/>
 <path d="m54.682 15.019 0.78638-5.3436-3.6082-3.8548 5.0792-0.86533 2.3738-4.7973 2.3527 4.8088 5.0753 0.88996-3.6251 3.8373 0.76291 5.3473-4.5932-2.4372-4.6038 2.4149z" fill="none" stroke="#000" stroke-width=".03262"/>
 <path d="m71.957 14.89 0.78638-5.3436-3.6082-3.8548 5.0792-0.86533 2.3738-4.7973 2.3527 4.8088 5.0753 0.88996-3.6251 3.8373 0.76291 5.3473-4.5932-2.4372-4.6038 2.4149z" fill="none" stroke="#000" stroke-width=".03262"/>
 <path d="m42.041 0.03125-2.375 4.7812-5.0938 0.875 3.625 3.8438-0.78125 5.3438 4.5938-2.4062 4.5938 2.4375-0.75-5.3438 3.625-3.8438-5.0938-0.875-2.3438-4.8125zm0 0.09375 2.3125 4.75 5.0312 0.875-3.5938 3.8125 0.75 5.2812-4.5312-2.4062 0.03125-12.312z" fill="#ff0" fill-opacity=".75" fill-rule="evenodd" stroke="#000" stroke-width=".03262"/>
</svg>
